<mxfile host="app.diagrams.net" modified="2023-03-02T15:10:20.678Z" agent="5.0 (Macintosh; Intel Mac OS X 10_15_7) AppleWebKit/605.1.15 (KHTML, like Gecko) Version/16.3 Safari/605.1.15" etag="Aoaz-H05ALSgYowuoU6Z" version="20.8.23" type="github">
  <diagram name="Page-1" id="5f0bae14-7c28-e335-631c-24af17079c00">
    <mxGraphModel dx="1327" dy="1516" grid="1" gridSize="10" guides="1" tooltips="1" connect="1" arrows="1" fold="1" page="1" pageScale="1" pageWidth="1100" pageHeight="850" background="none" math="0" shadow="0">
      <root>
        <mxCell id="0" />
        <mxCell id="1" parent="0" />
        <mxCell id="39150e848f15840c-1" value="BAT Mex (Servidor web)" style="verticalAlign=top;align=left;spacingTop=8;spacingLeft=2;spacingRight=12;shape=cube;size=10;direction=south;fontStyle=4;html=1;rounded=0;shadow=0;comic=0;labelBackgroundColor=none;strokeWidth=1;fontFamily=Verdana;fontSize=12;fillColor=#647687;fontColor=#ffffff;strokeColor=#314354;" parent="1" vertex="1">
          <mxGeometry x="40" y="-60" width="550" height="410" as="geometry" />
        </mxCell>
        <mxCell id="39150e848f15840c-2" value="EDP" style="verticalAlign=top;align=left;spacingTop=8;spacingLeft=2;spacingRight=12;shape=cube;size=10;direction=south;fontStyle=4;html=1;rounded=0;shadow=0;comic=0;labelBackgroundColor=none;strokeWidth=1;fontFamily=Verdana;fontSize=12;fillColor=#dae8fc;strokeColor=#6c8ebf;" parent="1" vertex="1">
          <mxGeometry x="930" y="120" width="330" height="220" as="geometry" />
        </mxCell>
        <mxCell id="39150e848f15840c-3" value="RDS Server" style="verticalAlign=top;align=left;spacingTop=8;spacingLeft=2;spacingRight=12;shape=cube;size=10;direction=south;fontStyle=4;html=1;rounded=0;shadow=0;comic=0;labelBackgroundColor=none;strokeWidth=1;fontFamily=Verdana;fontSize=12;fillColor=#ffe6cc;strokeColor=#d79b00;" parent="1" vertex="1">
          <mxGeometry x="475" y="420" width="365" height="190" as="geometry" />
        </mxCell>
        <mxCell id="SNYidIK79kewubkdraST-20" style="edgeStyle=orthogonalEdgeStyle;rounded=0;orthogonalLoop=1;jettySize=auto;html=1;" parent="1" source="39150e848f15840c-5" target="SNYidIK79kewubkdraST-10" edge="1">
          <mxGeometry relative="1" as="geometry" />
        </mxCell>
        <mxCell id="SNYidIK79kewubkdraST-21" style="edgeStyle=orthogonalEdgeStyle;rounded=0;orthogonalLoop=1;jettySize=auto;html=1;exitX=1;exitY=0.5;exitDx=0;exitDy=0;" parent="1" source="39150e848f15840c-5" target="SNYidIK79kewubkdraST-5" edge="1">
          <mxGeometry relative="1" as="geometry" />
        </mxCell>
        <mxCell id="SNYidIK79kewubkdraST-22" style="edgeStyle=orthogonalEdgeStyle;rounded=0;orthogonalLoop=1;jettySize=auto;html=1;" parent="1" source="39150e848f15840c-5" target="SNYidIK79kewubkdraST-3" edge="1">
          <mxGeometry relative="1" as="geometry" />
        </mxCell>
        <mxCell id="39150e848f15840c-5" value="BAT - MEX&amp;nbsp;&lt;br&gt;(Laravel App - LaravelPWA)" style="shape=component;align=left;spacingLeft=36;rounded=0;shadow=0;comic=0;labelBackgroundColor=none;strokeWidth=1;fontFamily=Verdana;fontSize=12;html=1;" parent="1" vertex="1">
          <mxGeometry x="70" y="110" width="220" height="130" as="geometry" />
        </mxCell>
        <mxCell id="39150e848f15840c-18" style="edgeStyle=orthogonalEdgeStyle;rounded=0;html=1;labelBackgroundColor=none;startArrow=none;startFill=0;startSize=8;endArrow=none;endFill=0;endSize=16;fontFamily=Verdana;fontSize=12;" parent="1" source="39150e848f15840c-3" target="39150e848f15840c-1" edge="1">
          <mxGeometry relative="1" as="geometry">
            <Array as="points">
              <mxPoint x="390" y="495" />
            </Array>
          </mxGeometry>
        </mxCell>
        <mxCell id="SNYidIK79kewubkdraST-16" style="edgeStyle=orthogonalEdgeStyle;rounded=0;orthogonalLoop=1;jettySize=auto;html=1;" parent="1" source="SNYidIK79kewubkdraST-3" target="SNYidIK79kewubkdraST-13" edge="1">
          <mxGeometry relative="1" as="geometry" />
        </mxCell>
        <mxCell id="SNYidIK79kewubkdraST-18" style="edgeStyle=orthogonalEdgeStyle;rounded=0;orthogonalLoop=1;jettySize=auto;html=1;" parent="1" source="SNYidIK79kewubkdraST-10" target="SNYidIK79kewubkdraST-15" edge="1">
          <mxGeometry relative="1" as="geometry" />
        </mxCell>
        <mxCell id="SNYidIK79kewubkdraST-3" value="Custom Push Notifications&lt;br&gt;(OneSignal API&amp;nbsp;Consumer)" style="shape=component;align=left;spacingLeft=36;rounded=0;shadow=0;comic=0;labelBackgroundColor=none;strokeWidth=1;fontFamily=Verdana;fontSize=12;html=1;" parent="1" vertex="1">
          <mxGeometry x="300" y="-15" width="180" height="100" as="geometry" />
        </mxCell>
        <mxCell id="SNYidIK79kewubkdraST-17" style="edgeStyle=orthogonalEdgeStyle;rounded=0;orthogonalLoop=1;jettySize=auto;html=1;entryX=0.609;entryY=0.936;entryDx=0;entryDy=0;entryPerimeter=0;" parent="1" source="SNYidIK79kewubkdraST-5" target="SNYidIK79kewubkdraST-14" edge="1">
          <mxGeometry relative="1" as="geometry" />
        </mxCell>
        <mxCell id="SNYidIK79kewubkdraST-5" value="SMS notifications&lt;br&gt;(Twilio API)" style="shape=component;align=left;spacingLeft=36;rounded=0;shadow=0;comic=0;labelBackgroundColor=none;strokeWidth=1;fontFamily=Verdana;fontSize=12;html=1;" parent="1" vertex="1">
          <mxGeometry x="400" y="190" width="130" height="100" as="geometry" />
        </mxCell>
        <mxCell id="SNYidIK79kewubkdraST-10" value="Chatbot script&amp;nbsp;&lt;br&gt;(Botmaker)" style="shape=component;align=left;spacingLeft=36;rounded=0;shadow=0;comic=0;labelBackgroundColor=none;strokeWidth=1;fontFamily=Verdana;fontSize=12;html=1;" parent="1" vertex="1">
          <mxGeometry x="130" y="-10" width="120" height="60" as="geometry" />
        </mxCell>
        <mxCell id="SNYidIK79kewubkdraST-13" value="OneSignal API" style="ellipse;shape=cloud;whiteSpace=wrap;html=1;" parent="1" vertex="1">
          <mxGeometry x="330" y="-320" width="200" height="115" as="geometry" />
        </mxCell>
        <mxCell id="SNYidIK79kewubkdraST-14" value="Twilio API" style="ellipse;shape=cloud;whiteSpace=wrap;html=1;" parent="1" vertex="1">
          <mxGeometry x="580" y="-315" width="225" height="110" as="geometry" />
        </mxCell>
        <mxCell id="SNYidIK79kewubkdraST-15" value="Botmaker" style="ellipse;shape=cloud;whiteSpace=wrap;html=1;" parent="1" vertex="1">
          <mxGeometry x="60" y="-290" width="240" height="120" as="geometry" />
        </mxCell>
        <mxCell id="SNYidIK79kewubkdraST-27" value="" style="endArrow=none;html=1;rounded=0;entryX=0;entryY=0;entryDx=200;entryDy=0;entryPerimeter=0;" parent="1" source="39150e848f15840c-2" target="39150e848f15840c-1" edge="1">
          <mxGeometry width="50" height="50" relative="1" as="geometry">
            <mxPoint x="520" y="350" as="sourcePoint" />
            <mxPoint x="570" y="300" as="targetPoint" />
          </mxGeometry>
        </mxCell>
        <mxCell id="SNYidIK79kewubkdraST-28" value="Blob Storage&lt;br&gt;(.net Core v6)" style="shape=component;align=left;spacingLeft=36;rounded=0;shadow=0;comic=0;labelBackgroundColor=none;strokeWidth=1;fontFamily=Verdana;fontSize=12;html=1;" parent="1" vertex="1">
          <mxGeometry x="990" y="180" width="180" height="100" as="geometry" />
        </mxCell>
        <mxCell id="SNYidIK79kewubkdraST-30" value="NET COMMERCE" style="verticalAlign=top;align=left;spacingTop=8;spacingLeft=2;spacingRight=12;shape=cube;size=10;direction=south;fontStyle=4;html=1;rounded=0;shadow=0;comic=0;labelBackgroundColor=none;strokeWidth=1;fontFamily=Verdana;fontSize=12;fillColor=#d5e8d4;strokeColor=#82b366;" parent="1" vertex="1">
          <mxGeometry x="840" y="-280" width="450" height="260" as="geometry" />
        </mxCell>
        <mxCell id="SNYidIK79kewubkdraST-31" value="" style="endArrow=none;html=1;rounded=0;exitX=0;exitY=0;exitDx=200;exitDy=0;exitPerimeter=0;" parent="1" source="39150e848f15840c-1" target="SNYidIK79kewubkdraST-30" edge="1">
          <mxGeometry width="50" height="50" relative="1" as="geometry">
            <mxPoint x="520" y="90" as="sourcePoint" />
            <mxPoint x="570" y="40" as="targetPoint" />
          </mxGeometry>
        </mxCell>
        <mxCell id="SNYidIK79kewubkdraST-34" style="edgeStyle=orthogonalEdgeStyle;rounded=0;orthogonalLoop=1;jettySize=auto;html=1;" parent="1" source="SNYidIK79kewubkdraST-32" target="SNYidIK79kewubkdraST-33" edge="1">
          <mxGeometry relative="1" as="geometry" />
        </mxCell>
        <mxCell id="SNYidIK79kewubkdraST-32" value="NetCommerce API" style="shape=component;align=left;spacingLeft=36;rounded=0;shadow=0;comic=0;labelBackgroundColor=none;strokeWidth=1;fontFamily=Verdana;fontSize=12;html=1;" parent="1" vertex="1">
          <mxGeometry x="910" y="-180" width="150" height="60" as="geometry" />
        </mxCell>
        <mxCell id="SNYidIK79kewubkdraST-33" value="Net Commerce DB (BATMEX)" style="shape=cylinder3;whiteSpace=wrap;html=1;boundedLbl=1;backgroundOutline=1;size=15;" parent="1" vertex="1">
          <mxGeometry x="1120" y="-200" width="110" height="100" as="geometry" />
        </mxCell>
        <mxCell id="SNYidIK79kewubkdraST-35" value="DB-BAT-MEX-PRODUCTION&lt;br style=&quot;border-color: var(--border-color); font-family: Verdana; text-align: left;&quot;&gt;&lt;span style=&quot;font-family: Verdana; text-align: left;&quot;&gt;(MySQL)&lt;/span&gt;" style="shape=cylinder3;whiteSpace=wrap;html=1;boundedLbl=1;backgroundOutline=1;size=15;" parent="1" vertex="1">
          <mxGeometry x="590" y="470" width="120" height="100" as="geometry" />
        </mxCell>
        <mxCell id="XRlm5Ty19CvFjAQbd4NC-1" value="BAT LANCAR - AWS" style="verticalAlign=top;align=left;spacingTop=8;spacingLeft=2;spacingRight=12;shape=cube;size=10;direction=south;fontStyle=4;html=1;rounded=0;shadow=0;comic=0;labelBackgroundColor=none;strokeWidth=1;fontFamily=Verdana;fontSize=12;fillColor=#647687;fontColor=#ffffff;strokeColor=#314354;" parent="1" vertex="1">
          <mxGeometry x="1740" y="-150" width="550" height="690" as="geometry" />
        </mxCell>
        <mxCell id="XRlm5Ty19CvFjAQbd4NC-6" value="Ngnix" style="rounded=0;whiteSpace=wrap;html=1;" parent="1" vertex="1">
          <mxGeometry x="1950" y="5" width="170" height="425" as="geometry" />
        </mxCell>
        <mxCell id="XRlm5Ty19CvFjAQbd4NC-5" value="Bat Jamaica" style="shape=component;align=left;spacingLeft=36;rounded=0;shadow=0;comic=0;labelBackgroundColor=none;strokeWidth=1;fontFamily=Verdana;fontSize=12;html=1;" parent="1" vertex="1">
          <mxGeometry x="1750" y="370" width="220" height="130" as="geometry" />
        </mxCell>
        <mxCell id="XRlm5Ty19CvFjAQbd4NC-2" value="Bat Colombia" style="shape=component;align=left;spacingLeft=36;rounded=0;shadow=0;comic=0;labelBackgroundColor=none;strokeWidth=1;fontFamily=Verdana;fontSize=12;html=1;" parent="1" vertex="1">
          <mxGeometry x="1750" y="-80" width="220" height="130" as="geometry" />
        </mxCell>
        <mxCell id="XRlm5Ty19CvFjAQbd4NC-3" value="Bat Honduras" style="shape=component;align=left;spacingLeft=36;rounded=0;shadow=0;comic=0;labelBackgroundColor=none;strokeWidth=1;fontFamily=Verdana;fontSize=12;html=1;" parent="1" vertex="1">
          <mxGeometry x="1750" y="70" width="220" height="130" as="geometry" />
        </mxCell>
        <mxCell id="XRlm5Ty19CvFjAQbd4NC-4" value="Bat Costa Rica" style="shape=component;align=left;spacingLeft=36;rounded=0;shadow=0;comic=0;labelBackgroundColor=none;strokeWidth=1;fontFamily=Verdana;fontSize=12;html=1;" parent="1" vertex="1">
          <mxGeometry x="1750" y="220" width="220" height="130" as="geometry" />
        </mxCell>
        <mxCell id="XRlm5Ty19CvFjAQbd4NC-7" value="BAT LANCAR - AWS" style="verticalAlign=top;align=left;spacingTop=8;spacingLeft=2;spacingRight=12;shape=cube;size=10;direction=south;fontStyle=4;html=1;rounded=0;shadow=0;comic=0;labelBackgroundColor=none;strokeWidth=1;fontFamily=Verdana;fontSize=12;fillColor=#647687;fontColor=#ffffff;strokeColor=#314354;" parent="1" vertex="1">
          <mxGeometry x="2370" y="-160" width="490" height="320" as="geometry" />
        </mxCell>
        <mxCell id="XRlm5Ty19CvFjAQbd4NC-8" value="Ngnix" style="rounded=0;whiteSpace=wrap;html=1;" parent="1" vertex="1">
          <mxGeometry x="2590" y="-5" width="170" height="95" as="geometry" />
        </mxCell>
        <mxCell id="XRlm5Ty19CvFjAQbd4NC-9" value="Bat Colombia" style="shape=component;align=left;spacingLeft=36;rounded=0;shadow=0;comic=0;labelBackgroundColor=none;strokeWidth=1;fontFamily=Verdana;fontSize=12;html=1;" parent="1" vertex="1">
          <mxGeometry x="2390" y="-90" width="220" height="130" as="geometry" />
        </mxCell>
        <mxCell id="95MMNsXI-80azVQTtyaz-4" style="edgeStyle=orthogonalEdgeStyle;rounded=0;orthogonalLoop=1;jettySize=auto;html=1;" edge="1" parent="1" source="95MMNsXI-80azVQTtyaz-1" target="95MMNsXI-80azVQTtyaz-2">
          <mxGeometry relative="1" as="geometry">
            <Array as="points">
              <mxPoint x="1070" y="1045" />
            </Array>
          </mxGeometry>
        </mxCell>
        <mxCell id="95MMNsXI-80azVQTtyaz-9" value="WS" style="edgeLabel;html=1;align=center;verticalAlign=middle;resizable=0;points=[];" vertex="1" connectable="0" parent="95MMNsXI-80azVQTtyaz-4">
          <mxGeometry x="0.0201" y="-3" relative="1" as="geometry">
            <mxPoint as="offset" />
          </mxGeometry>
        </mxCell>
        <mxCell id="95MMNsXI-80azVQTtyaz-32" value="Archivo de carga de clientes&lt;br&gt;&lt;br&gt;Cedula&lt;br&gt;Nombre&lt;br&gt;Email&lt;br&gt;Fecha de cumpleaños&lt;br&gt;Celular?&lt;br&gt;??" style="edgeStyle=orthogonalEdgeStyle;rounded=0;orthogonalLoop=1;jettySize=auto;html=1;entryX=0.176;entryY=-0.012;entryDx=0;entryDy=0;entryPerimeter=0;" edge="1" parent="1">
          <mxGeometry x="0.0095" y="-40" relative="1" as="geometry">
            <mxPoint x="425" y="1091" as="sourcePoint" />
            <mxPoint x="981.1199999999999" y="1140.04" as="targetPoint" />
            <Array as="points">
              <mxPoint x="981" y="1091" />
            </Array>
            <mxPoint as="offset" />
          </mxGeometry>
        </mxCell>
        <mxCell id="95MMNsXI-80azVQTtyaz-1" value="Email&lt;br&gt;Bono crepes 30000&amp;nbsp;" style="rounded=0;whiteSpace=wrap;html=1;" vertex="1" parent="1">
          <mxGeometry x="300" y="920" width="125" height="250" as="geometry" />
        </mxCell>
        <mxCell id="95MMNsXI-80azVQTtyaz-6" style="edgeStyle=orthogonalEdgeStyle;rounded=0;orthogonalLoop=1;jettySize=auto;html=1;entryX=0.5;entryY=0;entryDx=0;entryDy=0;" edge="1" parent="1" source="95MMNsXI-80azVQTtyaz-2" target="95MMNsXI-80azVQTtyaz-1">
          <mxGeometry relative="1" as="geometry" />
        </mxCell>
        <mxCell id="95MMNsXI-80azVQTtyaz-7" value="BD De clientes Manual" style="edgeLabel;html=1;align=center;verticalAlign=middle;resizable=0;points=[];" vertex="1" connectable="0" parent="95MMNsXI-80azVQTtyaz-6">
          <mxGeometry x="0.0928" relative="1" as="geometry">
            <mxPoint as="offset" />
          </mxGeometry>
        </mxCell>
        <mxCell id="95MMNsXI-80azVQTtyaz-18" style="edgeStyle=orthogonalEdgeStyle;rounded=0;orthogonalLoop=1;jettySize=auto;html=1;entryX=0.75;entryY=0.1;entryDx=0;entryDy=0;entryPerimeter=0;" edge="1" parent="1" source="95MMNsXI-80azVQTtyaz-2" target="95MMNsXI-80azVQTtyaz-17">
          <mxGeometry relative="1" as="geometry">
            <Array as="points">
              <mxPoint x="1120" y="810" />
              <mxPoint x="1383" y="810" />
              <mxPoint x="1383" y="819" />
              <mxPoint x="1420" y="819" />
              <mxPoint x="1420" y="817" />
            </Array>
          </mxGeometry>
        </mxCell>
        <mxCell id="95MMNsXI-80azVQTtyaz-33" value="BD Cliente" style="edgeStyle=orthogonalEdgeStyle;rounded=0;jumpSize=11;orthogonalLoop=1;jettySize=auto;html=1;strokeWidth=5;fillColor=#fff2cc;strokeColor=#d6b656;entryX=0.5;entryY=0;entryDx=0;entryDy=0;entryPerimeter=0;" edge="1" parent="1" source="95MMNsXI-80azVQTtyaz-2" target="95MMNsXI-80azVQTtyaz-34">
          <mxGeometry relative="1" as="geometry">
            <Array as="points">
              <mxPoint x="1120" y="1090" />
            </Array>
          </mxGeometry>
        </mxCell>
        <mxCell id="95MMNsXI-80azVQTtyaz-36" value="Archivo de carga de clientes&lt;br style=&quot;border-color: var(--border-color);&quot;&gt;&lt;br style=&quot;border-color: var(--border-color);&quot;&gt;Cedula&lt;br style=&quot;border-color: var(--border-color);&quot;&gt;Nombre&lt;br style=&quot;border-color: var(--border-color);&quot;&gt;Email&lt;br style=&quot;border-color: var(--border-color);&quot;&gt;Fecha de cumpleaños&lt;br style=&quot;border-color: var(--border-color);&quot;&gt;Celular?&lt;br style=&quot;border-color: var(--border-color);&quot;&gt;Bono??? Venta Nueva" style="edgeLabel;html=1;align=center;verticalAlign=middle;resizable=0;points=[];" vertex="1" connectable="0" parent="95MMNsXI-80azVQTtyaz-33">
          <mxGeometry x="-0.4628" y="7" relative="1" as="geometry">
            <mxPoint x="103" y="-2" as="offset" />
          </mxGeometry>
        </mxCell>
        <mxCell id="95MMNsXI-80azVQTtyaz-2" value="MKT Cloud&amp;nbsp;" style="shape=process;whiteSpace=wrap;html=1;backgroundOutline=1;" vertex="1" parent="1">
          <mxGeometry x="1060" y="840" width="120" height="60" as="geometry" />
        </mxCell>
        <mxCell id="95MMNsXI-80azVQTtyaz-5" value="BD Bonos" style="shape=cylinder3;whiteSpace=wrap;html=1;boundedLbl=1;backgroundOutline=1;size=15;" vertex="1" parent="1">
          <mxGeometry x="330" y="1170" width="60" height="80" as="geometry" />
        </mxCell>
        <mxCell id="95MMNsXI-80azVQTtyaz-8" value="FTP" style="text;html=1;strokeColor=none;fillColor=none;align=center;verticalAlign=middle;whiteSpace=wrap;rounded=0;" vertex="1" parent="1">
          <mxGeometry x="332.5" y="930" width="60" height="30" as="geometry" />
        </mxCell>
        <mxCell id="95MMNsXI-80azVQTtyaz-10" value="1" style="text;html=1;strokeColor=none;fillColor=none;align=center;verticalAlign=middle;whiteSpace=wrap;rounded=0;" vertex="1" parent="1">
          <mxGeometry x="700" y="950" width="60" height="30" as="geometry" />
        </mxCell>
        <mxCell id="95MMNsXI-80azVQTtyaz-11" value="2" style="text;html=1;strokeColor=none;fillColor=none;align=center;verticalAlign=middle;whiteSpace=wrap;rounded=0;" vertex="1" parent="1">
          <mxGeometry x="840" y="1210" width="60" height="30" as="geometry" />
        </mxCell>
        <mxCell id="95MMNsXI-80azVQTtyaz-13" value="3" style="text;html=1;strokeColor=none;fillColor=none;align=center;verticalAlign=middle;whiteSpace=wrap;rounded=0;" vertex="1" parent="1">
          <mxGeometry x="1010" y="1100" width="60" height="30" as="geometry" />
        </mxCell>
        <mxCell id="95MMNsXI-80azVQTtyaz-16" value="PDF" style="edgeStyle=orthogonalEdgeStyle;rounded=0;orthogonalLoop=1;jettySize=auto;html=1;entryX=0.5;entryY=0;entryDx=0;entryDy=0;fillColor=#d5e8d4;strokeColor=#82b366;jumpSize=11;strokeWidth=5;" edge="1" parent="1" source="95MMNsXI-80azVQTtyaz-14" target="95MMNsXI-80azVQTtyaz-2">
          <mxGeometry relative="1" as="geometry">
            <Array as="points">
              <mxPoint x="1020" y="800" />
              <mxPoint x="1120" y="800" />
            </Array>
          </mxGeometry>
        </mxCell>
        <mxCell id="95MMNsXI-80azVQTtyaz-14" value="Pagina de selección de bono" style="shape=cube;whiteSpace=wrap;html=1;boundedLbl=1;backgroundOutline=1;darkOpacity=0.05;darkOpacity2=0.1;" vertex="1" parent="1">
          <mxGeometry x="960" y="1140" width="120" height="80" as="geometry" />
        </mxCell>
        <mxCell id="95MMNsXI-80azVQTtyaz-22" style="edgeStyle=orthogonalEdgeStyle;rounded=0;orthogonalLoop=1;jettySize=auto;html=1;" edge="1" parent="1" source="95MMNsXI-80azVQTtyaz-17" target="95MMNsXI-80azVQTtyaz-14">
          <mxGeometry relative="1" as="geometry">
            <Array as="points">
              <mxPoint x="1330" y="870" />
              <mxPoint x="1330" y="1180" />
            </Array>
          </mxGeometry>
        </mxCell>
        <mxCell id="95MMNsXI-80azVQTtyaz-17" value="Cliente" style="shape=umlActor;verticalLabelPosition=bottom;verticalAlign=top;html=1;outlineConnect=0;" vertex="1" parent="1">
          <mxGeometry x="1440" y="811" width="30" height="60" as="geometry" />
        </mxCell>
        <mxCell id="95MMNsXI-80azVQTtyaz-21" value="" style="edgeStyle=orthogonalEdgeStyle;rounded=0;orthogonalLoop=1;jettySize=auto;html=1;" edge="1" parent="1" source="95MMNsXI-80azVQTtyaz-20" target="95MMNsXI-80azVQTtyaz-17">
          <mxGeometry relative="1" as="geometry" />
        </mxCell>
        <mxCell id="95MMNsXI-80azVQTtyaz-20" value="Momento 1: Recibe Email que tiene un bono de cumpleaños y lo tiene que seleccionar" style="text;html=1;strokeColor=none;fillColor=none;align=center;verticalAlign=middle;whiteSpace=wrap;rounded=0;" vertex="1" parent="1">
          <mxGeometry x="1500" y="840" width="60" height="30" as="geometry" />
        </mxCell>
        <mxCell id="95MMNsXI-80azVQTtyaz-23" value="Momento 2: enviamos email de acuerdo a regla de negocio" style="text;html=1;strokeColor=none;fillColor=none;align=center;verticalAlign=middle;whiteSpace=wrap;rounded=0;" vertex="1" parent="1">
          <mxGeometry x="1130" y="1220" width="60" height="30" as="geometry" />
        </mxCell>
        <mxCell id="95MMNsXI-80azVQTtyaz-24" value="Momento 3: administrar inventarios" style="text;html=1;strokeColor=none;fillColor=none;align=center;verticalAlign=middle;whiteSpace=wrap;rounded=0;" vertex="1" parent="1">
          <mxGeometry x="990" y="1250" width="60" height="30" as="geometry" />
        </mxCell>
        <mxCell id="95MMNsXI-80azVQTtyaz-26" style="edgeStyle=orthogonalEdgeStyle;rounded=0;orthogonalLoop=1;jettySize=auto;html=1;entryX=0.25;entryY=1;entryDx=0;entryDy=0;" edge="1" parent="1" source="95MMNsXI-80azVQTtyaz-25" target="95MMNsXI-80azVQTtyaz-24">
          <mxGeometry relative="1" as="geometry" />
        </mxCell>
        <mxCell id="95MMNsXI-80azVQTtyaz-25" value="Alertas de Inventario?" style="text;html=1;strokeColor=none;fillColor=none;align=center;verticalAlign=middle;whiteSpace=wrap;rounded=0;" vertex="1" parent="1">
          <mxGeometry x="910" y="1380" width="60" height="30" as="geometry" />
        </mxCell>
        <mxCell id="95MMNsXI-80azVQTtyaz-28" style="edgeStyle=orthogonalEdgeStyle;rounded=0;orthogonalLoop=1;jettySize=auto;html=1;" edge="1" parent="1" source="95MMNsXI-80azVQTtyaz-27" target="95MMNsXI-80azVQTtyaz-24">
          <mxGeometry relative="1" as="geometry" />
        </mxCell>
        <mxCell id="95MMNsXI-80azVQTtyaz-27" value="Nuevos Bonos?" style="text;html=1;strokeColor=none;fillColor=none;align=center;verticalAlign=middle;whiteSpace=wrap;rounded=0;" vertex="1" parent="1">
          <mxGeometry x="1030" y="1380" width="60" height="30" as="geometry" />
        </mxCell>
        <mxCell id="95MMNsXI-80azVQTtyaz-30" style="edgeStyle=orthogonalEdgeStyle;rounded=0;orthogonalLoop=1;jettySize=auto;html=1;entryX=0;entryY=1;entryDx=0;entryDy=0;" edge="1" parent="1" source="95MMNsXI-80azVQTtyaz-29" target="95MMNsXI-80azVQTtyaz-24">
          <mxGeometry relative="1" as="geometry" />
        </mxCell>
        <mxCell id="95MMNsXI-80azVQTtyaz-29" value="Promociones&amp;nbsp;&lt;br&gt;Segmentacion" style="text;html=1;strokeColor=none;fillColor=none;align=center;verticalAlign=middle;whiteSpace=wrap;rounded=0;" vertex="1" parent="1">
          <mxGeometry x="870" y="1320" width="60" height="30" as="geometry" />
        </mxCell>
        <mxCell id="95MMNsXI-80azVQTtyaz-31" value="Seguridad:&lt;br&gt;único OTP (Email)&lt;br&gt;Celular?" style="text;html=1;strokeColor=none;fillColor=none;align=center;verticalAlign=middle;whiteSpace=wrap;rounded=0;" vertex="1" parent="1">
          <mxGeometry x="1200" y="1120" width="60" height="30" as="geometry" />
        </mxCell>
        <mxCell id="95MMNsXI-80azVQTtyaz-12" value="Bonos de Multi" style="shape=cylinder3;whiteSpace=wrap;html=1;boundedLbl=1;backgroundOutline=1;size=15;" vertex="1" parent="1">
          <mxGeometry x="900" y="1185" width="70" height="80" as="geometry" />
        </mxCell>
        <mxCell id="95MMNsXI-80azVQTtyaz-34" value="CLientes (Segmentos)" style="shape=cylinder3;whiteSpace=wrap;html=1;boundedLbl=1;backgroundOutline=1;size=15;" vertex="1" parent="1">
          <mxGeometry x="1068" y="1090" width="80" height="80" as="geometry" />
        </mxCell>
        <mxCell id="95MMNsXI-80azVQTtyaz-38" style="edgeStyle=orthogonalEdgeStyle;rounded=0;jumpSize=11;orthogonalLoop=1;jettySize=auto;html=1;entryX=0.889;entryY=1.133;entryDx=0;entryDy=0;entryPerimeter=0;strokeWidth=1;" edge="1" parent="1" source="95MMNsXI-80azVQTtyaz-37" target="95MMNsXI-80azVQTtyaz-24">
          <mxGeometry relative="1" as="geometry">
            <Array as="points">
              <mxPoint x="1080" y="1365" />
              <mxPoint x="1080" y="1284" />
            </Array>
          </mxGeometry>
        </mxCell>
        <mxCell id="95MMNsXI-80azVQTtyaz-37" value="Cual es el bono para venta nueva" style="text;html=1;strokeColor=none;fillColor=none;align=center;verticalAlign=middle;whiteSpace=wrap;rounded=0;" vertex="1" parent="1">
          <mxGeometry x="1100" y="1350" width="60" height="30" as="geometry" />
        </mxCell>
        <mxCell id="95MMNsXI-80azVQTtyaz-41" value="&lt;h1&gt;Validar&lt;/h1&gt;&lt;p&gt;Tu Regalo&amp;nbsp;&lt;/p&gt;&lt;p&gt;&lt;br&gt;&lt;/p&gt;&lt;p&gt;&lt;br&gt;&lt;/p&gt;" style="text;html=1;strokeColor=none;fillColor=none;spacing=5;spacingTop=-20;whiteSpace=wrap;overflow=hidden;rounded=0;" vertex="1" parent="1">
          <mxGeometry x="570" y="1230" width="190" height="120" as="geometry" />
        </mxCell>
      </root>
    </mxGraphModel>
  </diagram>
</mxfile>
